<svg width="25" height="24" viewBox="0 0 25 24" fill="none" xmlns="http://www.w3.org/2000/svg">
<path d="M21.025 5.4C21.025 6.39411 20.2191 7.2 19.225 7.2C18.2309 7.2 17.425 6.39411 17.425 5.4C17.425 4.40589 18.2309 3.6 19.225 3.6C20.2191 3.6 21.025 4.40589 21.025 5.4Z" fill="white"/>
<path fill-rule="evenodd" clip-rule="evenodd" d="M12.625 18C15.9387 18 18.625 15.3137 18.625 12C18.625 8.68629 15.9387 6 12.625 6C9.31129 6 6.625 8.68629 6.625 12C6.625 15.3137 9.31129 18 12.625 18ZM12.625 15.6C14.6132 15.6 16.225 13.9882 16.225 12C16.225 10.0118 14.6132 8.4 12.625 8.4C10.6368 8.4 9.025 10.0118 9.025 12C9.025 13.9882 10.6368 15.6 12.625 15.6Z" fill="white"/>
<path fill-rule="evenodd" clip-rule="evenodd" d="M0.625 11.52C0.625 7.48762 0.625 5.47143 1.40975 3.93127C2.10004 2.5765 3.2015 1.47504 4.55627 0.784753C6.09643 0 8.11262 0 12.145 0H13.105C17.1374 0 19.1536 0 20.6937 0.784753C22.0485 1.47504 23.15 2.5765 23.8402 3.93127C24.625 5.47143 24.625 7.48762 24.625 11.52V12.48C24.625 16.5124 24.625 18.5286 23.8402 20.0687C23.15 21.4235 22.0485 22.525 20.6937 23.2152C19.1536 24 17.1374 24 13.105 24H12.145C8.11262 24 6.09643 24 4.55627 23.2152C3.2015 22.525 2.10004 21.4235 1.40975 20.0687C0.625 18.5286 0.625 16.5124 0.625 12.48V11.52ZM12.145 2.4H13.105C15.1608 2.4 16.5583 2.40187 17.6385 2.49012C18.6907 2.57609 19.2288 2.73191 19.6042 2.92317C20.5073 3.38336 21.2416 4.11767 21.7018 5.02085C21.8931 5.3962 22.0489 5.93429 22.1349 6.98649C22.2231 8.06671 22.225 9.46421 22.225 11.52V12.48C22.225 14.5358 22.2231 15.9333 22.1349 17.0135C22.0489 18.0657 21.8931 18.6038 21.7018 18.9792C21.2416 19.8823 20.5073 20.6166 19.6042 21.0768C19.2288 21.2681 18.6907 21.4239 17.6385 21.5099C16.5583 21.5981 15.1608 21.6 13.105 21.6H12.145C10.0892 21.6 8.69171 21.5981 7.61149 21.5099C6.55929 21.4239 6.0212 21.2681 5.64585 21.0768C4.74267 20.6166 4.00836 19.8823 3.54817 18.9792C3.35691 18.6038 3.20109 18.0657 3.11512 17.0135C3.02687 15.9333 3.025 14.5358 3.025 12.48V11.52C3.025 9.46421 3.02687 8.06671 3.11512 6.98649C3.20109 5.93429 3.35691 5.3962 3.54817 5.02085C4.00836 4.11767 4.74267 3.38336 5.64585 2.92317C6.0212 2.73191 6.55929 2.57609 7.61149 2.49012C8.69171 2.40187 10.0892 2.4 12.145 2.4Z" fill="white"/>
</svg>
