<svg width="26" height="26" viewBox="0 0 26 26" fill="none" xmlns="http://www.w3.org/2000/svg">
<path d="M6.86632 16.0815C6.99329 15.0302 7.42446 14.4416 8.23699 13.8382C9.39956 13.021 10.8518 13.4832 10.8518 13.4832V10.7409C11.2048 10.7319 11.558 10.7528 11.9072 10.8034V14.3325C11.9072 14.3325 10.4554 13.8703 9.29287 14.6879C8.48079 15.2909 8.04874 15.8799 7.92221 16.9312C7.91824 17.5021 8.02537 18.2483 8.5187 18.8935C8.39673 18.831 8.2724 18.7597 8.14573 18.6797C7.05898 17.95 6.86103 16.8551 6.86632 16.0815ZM17.9035 5.67036C17.1037 4.794 16.8013 3.90919 16.692 3.28763H17.698C17.698 3.28763 17.4974 4.91739 18.9594 6.5201L18.9796 6.54165C18.5856 6.29381 18.2243 6.00126 17.9035 5.67036ZM22.75 8.15493V11.613C22.75 11.613 21.4662 11.5628 20.5161 11.3211C19.1895 10.983 18.3369 10.4646 18.3369 10.4646C18.3369 10.4646 17.7479 10.0948 17.7002 10.0691V17.2101C17.7002 17.6077 17.5914 18.6007 17.2594 19.4289C16.826 20.5123 16.1572 21.2234 16.0342 21.3688C16.0342 21.3688 15.2208 22.3301 13.7858 22.9774C12.4923 23.5614 11.3566 23.5466 11.0171 23.5614C11.0171 23.5614 9.05392 23.6391 7.28735 22.4911C6.90535 22.238 6.54876 21.9514 6.22221 21.635L6.23103 21.6413C7.99804 22.7894 9.96079 22.7116 9.96079 22.7116C10.3007 22.6968 11.4364 22.7116 12.7294 22.1277C14.1632 21.4803 14.9779 20.519 14.9779 20.519C15.0996 20.3737 15.7714 19.6625 16.2031 18.5787C16.5341 17.7509 16.6439 16.7575 16.6439 16.3599V9.21974C16.6915 9.24594 17.2801 9.61567 17.2801 9.61567C17.2801 9.61567 18.1332 10.1346 19.4598 10.4722C20.4103 10.7139 21.6936 10.7641 21.6936 10.7641V8.05436C22.1327 8.15282 22.507 8.17944 22.75 8.15493Z" fill="white"/>
<path d="M21.6941 8.05436V10.7633C21.6941 10.7633 20.4107 10.713 19.4602 10.4713C18.1336 10.1333 17.2806 9.61482 17.2806 9.61482C17.2806 9.61482 16.692 9.2451 16.6444 9.2189V16.3608C16.6444 16.7584 16.5355 17.7518 16.2035 18.5795C15.7701 19.6634 15.1013 20.3745 14.9783 20.5199C14.9783 20.5199 14.1645 21.4812 12.7299 22.1285C11.4368 22.7125 10.3012 22.6977 9.96124 22.7125C9.96124 22.7125 7.99849 22.7902 6.23149 21.6422L6.22267 21.6358C6.03611 21.4552 5.8605 21.2644 5.69671 21.0645C5.13284 20.3771 4.7872 19.5641 4.70035 19.3321C4.7002 19.3311 4.7002 19.3301 4.70035 19.3291C4.56059 18.926 4.26697 17.958 4.30709 17.0204C4.37807 15.3661 4.96002 14.3507 5.11388 14.0963C5.52138 13.4027 6.05138 12.782 6.68029 12.2621C7.23527 11.8134 7.86432 11.4564 8.54164 11.2057C9.27385 10.9114 10.0579 10.7536 10.8518 10.7409V13.4832C10.8518 13.4832 9.39957 13.0227 8.23744 13.8382C7.42492 14.4416 6.99375 15.0302 6.86678 16.0815C6.86149 16.8551 7.05944 17.95 8.1453 18.6801C8.27198 18.7604 8.3963 18.8317 8.51827 18.8939C8.70798 19.1405 8.93886 19.3554 9.20162 19.5299C10.2624 20.2013 11.1511 20.2482 12.2877 19.8121C13.0456 19.5206 13.616 18.8635 13.8806 18.1355C14.0468 17.6808 14.0446 17.2232 14.0446 16.7499V3.28763H16.6898C16.7991 3.90919 17.1016 4.794 17.9013 5.67036C18.2221 6.00126 18.5834 6.29381 18.9775 6.54165C19.0938 6.66208 19.689 7.25744 20.4531 7.62294C20.8481 7.81187 21.2645 7.95663 21.6941 8.05436V8.05436Z" fill="white"/>
<path d="M3.64752 18.49V18.4921L3.71316 18.67C3.70562 18.6493 3.68123 18.5864 3.64752 18.49Z" fill="white"/>
<path d="M8.54166 11.2058C7.86434 11.4564 7.23529 11.8134 6.68031 12.2621C6.0512 12.7833 5.52133 13.4052 5.11435 14.1002C4.96048 14.3537 4.37854 15.37 4.30756 17.0242C4.26744 17.9619 4.56105 18.9299 4.70081 19.333C4.70066 19.334 4.70066 19.335 4.70081 19.336C4.78898 19.5658 5.1333 20.3788 5.69718 21.0684C5.86097 21.2683 6.03657 21.459 6.22313 21.6397C5.6254 21.2435 5.09231 20.7644 4.64129 20.2182C4.08227 19.5367 3.73751 18.7322 3.64757 18.4947C3.64747 18.493 3.64747 18.4913 3.64757 18.4896V18.4867C3.50738 18.084 3.21288 17.1155 3.25388 16.1766C3.32486 14.5223 3.9068 13.507 4.06067 13.2526C4.46753 12.5575 4.99742 11.9356 5.62664 11.4145C6.1815 10.9657 6.81058 10.6086 7.48799 10.3581C7.91052 10.1901 8.35069 10.0662 8.80089 9.98842C9.47938 9.87491 10.1723 9.86507 10.854 9.95926V10.741C10.0594 10.7534 9.27456 10.9112 8.54166 11.2058Z" fill="white"/>
<path d="M16.692 3.28766H14.0468V16.7504C14.0468 17.2236 14.0468 17.68 13.8827 18.1359C13.6156 18.8635 13.0473 19.5206 12.2899 19.8121C11.1529 20.2499 10.2641 20.2013 9.2038 19.5299C8.94059 19.3562 8.70911 19.142 8.51869 18.8961C9.42203 19.3579 10.2306 19.3499 11.2322 18.9645C11.9892 18.673 12.5584 18.0159 12.8247 17.2879C12.9913 16.8332 12.9891 16.3756 12.9891 15.9028V2.4375H16.6417C16.6417 2.4375 16.6007 2.77216 16.692 3.28766ZM21.6941 7.30522V8.0544C21.2653 7.95651 20.8496 7.81176 20.4552 7.62298C19.6912 7.25748 19.096 6.66211 18.9796 6.54168C19.1147 6.62667 19.2548 6.70399 19.3993 6.77324C20.3283 7.21776 21.2431 7.35044 21.6941 7.30522Z" fill="white"/>
</svg>
