<svg width="28" height="28" viewBox="0 0 28 28" fill="none" xmlns="http://www.w3.org/2000/svg">
<path d="M25.1782 8.39988C25.0522 7.89655 24.7956 7.43538 24.4344 7.06295C24.0731 6.69052 23.62 6.42002 23.1207 6.27878C21.2966 5.83334 14 5.83334 14 5.83334C14 5.83334 6.7034 5.83334 4.87926 6.3212C4.38 6.46245 3.92686 6.73295 3.5656 7.10537C3.20435 7.4778 2.94777 7.93897 2.82179 8.4423C2.48794 10.2935 2.32464 12.1715 2.33393 14.0526C2.32203 15.9479 2.48535 17.8402 2.82179 19.7054C2.96068 20.193 3.223 20.6367 3.58342 20.9934C3.94383 21.3501 4.39015 21.6078 4.87926 21.7416C6.7034 22.2295 14 22.2295 14 22.2295C14 22.2295 21.2966 22.2295 23.1207 21.7416C23.62 21.6004 24.0731 21.3299 24.4344 20.9574C24.7956 20.585 25.0522 20.1238 25.1782 19.6205C25.5095 17.7832 25.6728 15.9195 25.6661 14.0526C25.678 12.1574 25.5146 10.2651 25.1782 8.39988Z" stroke="white" stroke-width="2" stroke-linecap="round" stroke-linejoin="round"/>
<path d="M11.375 11.0429C11.375 10.4861 11.375 10.2076 11.4914 10.0522C11.5928 9.91676 11.748 9.83202 11.9168 9.81996C12.1104 9.80613 12.3446 9.95669 12.813 10.2578L17.413 13.2149C17.8194 13.4762 18.0227 13.6068 18.0929 13.773C18.1542 13.9181 18.1542 14.0819 18.0929 14.2271C18.0227 14.3932 17.8194 14.5238 17.413 14.7851L12.813 17.7422C12.3446 18.0433 12.1104 18.1939 11.9168 18.1801C11.748 18.168 11.5928 18.0833 11.4914 17.9478C11.375 17.7924 11.375 17.514 11.375 16.9571V11.0429Z" stroke="white" stroke-width="2" stroke-linecap="round" stroke-linejoin="round"/>
</svg>
