<svg width="31" height="40" viewBox="0 0 31 40" fill="none" xmlns="http://www.w3.org/2000/svg">
<g clip-path="url(#clip0_461_837)">
<path fill-rule="evenodd" clip-rule="evenodd" d="M1.11738 0.264692C3.42261 3.58792 9.85888 11.1343 24.9535 19.3643C25.0959 19.4414 25.2021 19.5718 25.249 19.7271C25.2959 19.8824 25.2796 20.05 25.2038 20.1934C24.0701 22.3268 20.4214 30.6131 26.4439 39.5219C26.4881 39.5851 26.5066 39.6629 26.4957 39.7393C26.4849 39.8157 26.4456 39.8852 26.3856 39.9336C26.3257 39.982 26.2497 40.0058 26.1729 40.0001C26.0962 39.9944 26.0245 39.9597 25.9723 39.903C23.7183 37.5495 20.5596 32.568 21.6112 23.6825C21.627 23.5486 21.5982 23.4132 21.5293 23.2974C21.4604 23.1817 21.3553 23.092 21.2304 23.0425C18.273 21.8409 15.3869 20.4698 12.5865 18.9357C6.95149 15.851 0.290016 12.1651 5.04332e-05 0.634156C-0.00307245 0.501898 0.0362769 0.372137 0.112289 0.264033C0.1883 0.155929 0.296945 0.0752128 0.422182 0.0338014C0.547419 -0.00760999 0.682609 -0.00752129 0.807791 0.0340544C0.932974 0.0756302 1.04151 0.156489 1.11738 0.264692Z" fill="white"/>
<path fill-rule="evenodd" clip-rule="evenodd" d="M3.84348 14.728C6.24923 16.7547 11.7344 20.7596 20.2584 23.5379C20.3895 23.58 20.5025 23.6652 20.5794 23.7798C20.6562 23.8943 20.6923 24.0315 20.6818 24.1692C20.5503 25.8613 20.6818 31.6709 22.5066 35.8814C22.5201 35.9241 22.5185 35.9702 22.5019 36.0118C22.4854 36.0534 22.4551 36.088 22.416 36.1097C22.377 36.1314 22.3316 36.1389 22.2877 36.1308C22.2438 36.1228 22.204 36.0998 22.1751 36.0657C20.9302 34.2795 19.3122 31.3742 19.1962 28.2158C19.1915 28.0763 19.1395 27.9427 19.0488 27.8369C18.9581 27.7311 18.8342 27.6595 18.6974 27.634C16.2646 27.1821 5.55911 24.6996 2.85953 15.3748C2.82171 15.2477 2.82577 15.1118 2.87113 14.9872C2.91648 14.8627 3.0007 14.7561 3.11125 14.6835C3.22181 14.6108 3.35279 14.5759 3.48472 14.5839C3.61665 14.5919 3.74248 14.6424 3.84348 14.728Z" fill="white"/>
<path fill-rule="evenodd" clip-rule="evenodd" d="M8.32487 24.9102C10.5866 26.1592 15.0743 28.4216 17.9691 28.4555C18.1444 28.4574 18.3131 28.5223 18.4449 28.6383C18.5766 28.7542 18.6626 28.9137 18.6873 29.0878C18.8622 30.3086 19.3822 32.8493 20.2395 34.3242C20.2508 34.3426 20.2548 34.3645 20.2509 34.3857C20.247 34.4069 20.2354 34.4259 20.2183 34.4391C20.2013 34.4522 20.18 34.4585 20.1586 34.4569C20.1371 34.4552 20.1171 34.4456 20.1023 34.4299C19.4257 33.7511 18.4669 32.604 18.3538 31.4548C18.3538 31.4548 12.4008 31.897 7.8184 25.4833C7.76019 25.412 7.72922 25.3221 7.73103 25.23C7.73285 25.1378 7.76732 25.0493 7.82829 24.9803C7.88925 24.9113 7.97272 24.8664 8.06372 24.8535C8.15472 24.8407 8.2473 24.8608 8.32487 24.9102Z" fill="white"/>
<path d="M19.3825 35.1873C18.3639 35.5146 17.3053 35.7 16.2364 35.7381C16.0518 35.7459 15.8662 35.7507 15.6797 35.7507C13.8076 35.7497 11.9596 35.3272 10.2719 34.5144C8.58419 33.7015 7.09984 32.519 5.92824 31.0541C4.75664 29.5891 3.92766 27.879 3.50241 26.0499C3.07716 24.2208 3.06648 22.3192 3.47115 20.4854L2.07932 18.1532C2.06028 18.1222 2.03294 18.0972 2.00042 18.0811C1.9679 18.065 1.93151 18.0584 1.89541 18.062C1.85932 18.0657 1.82497 18.0794 1.7963 18.1017C1.76763 18.124 1.7458 18.154 1.73329 18.1881C0.932909 20.4317 0.681712 22.8353 1.00086 25.1966C1.32002 27.5579 2.20017 29.8077 3.56717 31.7564C4.93417 33.705 6.74797 35.2955 8.85576 36.3938C10.9635 37.4922 13.3036 38.0661 15.6787 38.0674C15.8652 38.0674 16.0508 38.0674 16.2354 38.0577C17.6604 38.0058 19.0705 37.7471 20.4216 37.2897C20.4637 37.2755 20.5021 37.2518 20.5337 37.2204C20.5653 37.189 20.5892 37.1507 20.6037 37.1085C20.6182 37.0664 20.6228 37.0214 20.6172 36.9771C20.6116 36.9329 20.5959 36.8905 20.5714 36.8533L19.6841 35.2727C19.6582 35.228 19.6175 35.1938 19.5691 35.1761C19.5208 35.1584 19.4677 35.1583 19.4193 35.1757L19.3825 35.1873Z" fill="white"/>
<path d="M16.239 8.35722C16.0544 8.35043 15.8688 8.34558 15.6822 8.34558C14.4959 8.3451 13.3137 8.48737 12.1611 8.76935C12.12 8.7794 12.0827 8.80103 12.0535 8.83169C12.0243 8.86235 12.0045 8.90075 11.9963 8.94237C11.9882 8.98398 11.9921 9.02706 12.0076 9.06651C12.0231 9.10596 12.0495 9.14014 12.0838 9.165L14.1541 10.6768C14.2143 10.7208 14.2891 10.7399 14.3629 10.7301L14.5388 10.7078C14.9184 10.6656 15.3005 10.6507 15.6822 10.6632C15.8688 10.6632 16.0544 10.6681 16.239 10.6758C18.6507 10.7837 20.9798 11.5898 22.9448 12.9967C24.9099 14.4037 26.4269 16.3514 27.3126 18.6045C28.1984 20.8576 28.415 23.3199 27.9363 25.6939C27.4576 28.0678 26.3041 30.252 24.6151 31.9825C24.587 32.0111 24.5667 32.0464 24.556 32.0851C24.5454 32.1238 24.5448 32.1646 24.5542 32.2036L25.0684 34.2555C25.0781 34.2953 25.0979 34.3319 25.1259 34.3616C25.1539 34.3914 25.1891 34.4133 25.2281 34.4253C25.2671 34.4372 25.3086 34.4387 25.3484 34.4297C25.3882 34.4207 25.4249 34.4014 25.455 34.3738C27.6829 32.4122 29.2728 29.8249 30.0191 26.9468C30.7654 24.0687 30.6337 21.0321 29.641 18.2299C28.6484 15.4277 26.8405 12.9888 24.4512 11.2287C22.0619 9.46861 19.2011 8.46832 16.239 8.35722Z" fill="white"/>
</g>
<defs>
<clipPath id="clip0_461_837">
<rect width="30.4918" height="40" fill="white"/>
</clipPath>
</defs>
</svg>
