<svg width="34" height="24" viewBox="0 0 34 24" fill="none" xmlns="http://www.w3.org/2000/svg">
<path d="M30.2139 5.27991C30.0627 4.67592 29.7548 4.12252 29.3213 3.6756C28.8878 3.22869 28.344 2.90409 27.7449 2.73459C25.556 2.20007 16.8 2.20007 16.8 2.20007C16.8 2.20007 8.04414 2.20007 5.85516 2.7855C5.25605 2.955 4.71228 3.2796 4.27878 3.72651C3.84527 4.17343 3.53738 4.72683 3.3862 5.33082C2.98559 7.55232 2.78962 9.80589 2.80078 12.0632C2.7865 14.3375 2.98247 16.6083 3.3862 18.8465C3.55287 19.4317 3.86766 19.9641 4.30015 20.3921C4.73265 20.8201 5.26824 21.1294 5.85516 21.29C8.04414 21.8754 16.8 21.8754 16.8 21.8754C16.8 21.8754 25.556 21.8754 27.7449 21.29C28.344 21.1205 28.8878 20.7959 29.3213 20.349C29.7548 19.9021 30.0627 19.3487 30.2139 18.7447C30.6114 16.5399 30.8074 14.3035 30.7993 12.0632C30.8136 9.78889 30.6176 7.51814 30.2139 5.27991Z" stroke="white" stroke-width="2" stroke-linecap="round" stroke-linejoin="round"/>
<path d="M13.65 8.45154C13.65 7.78334 13.65 7.44924 13.7897 7.26272C13.9114 7.10018 14.0976 6.99848 14.3002 6.98402C14.5326 6.96742 14.8136 7.14808 15.3757 7.50942L20.8956 11.058C21.3834 11.3715 21.6272 11.5283 21.7115 11.7276C21.7851 11.9018 21.7851 12.0983 21.7115 12.2725C21.6272 12.4719 21.3834 12.6286 20.8956 12.9422L15.3757 16.4907C14.8136 16.8521 14.5326 17.0327 14.3002 17.0161C14.0976 17.0017 13.9114 16.9 13.7897 16.7374C13.65 16.5509 13.65 16.2168 13.65 15.5486V8.45154Z" stroke="white" stroke-width="2" stroke-linecap="round" stroke-linejoin="round"/>
</svg>
