<svg width="25" height="24" viewBox="0 0 25 24" fill="none" xmlns="http://www.w3.org/2000/svg">
<g clip-path="url(#clip0_459_834)">
<path d="M24.225 12C24.225 5.37258 18.8524 0 12.225 0C5.59755 0 0.224976 5.37258 0.224976 12C0.224976 17.9895 4.61318 22.954 10.35 23.8542V15.4688H7.3031V12H10.35V9.35625C10.35 6.34875 12.1415 4.6875 14.8826 4.6875C16.1951 4.6875 17.5687 4.92188 17.5687 4.92188V7.875H16.0556C14.565 7.875 14.1 8.80008 14.1 9.75V12H17.4281L16.8961 15.4688H14.1V23.8542C19.8368 22.954 24.225 17.9895 24.225 12Z" fill="white"/>
</g>
<defs>
<clipPath id="clip0_459_834">
<rect width="24" height="24" fill="white" transform="translate(0.224976)"/>
</clipPath>
</defs>
</svg>
