<svg width="256" height="256" viewBox="0 0 256 256" fill="none" xmlns="http://www.w3.org/2000/svg">
<rect width="256" height="256" rx="4" fill="black"/>
<g clip-path="url(#clip0_473_844)">
<path fill-rule="evenodd" clip-rule="evenodd" d="M65.9335 37.2167C76.1121 52.5036 104.531 87.2168 171.18 125.075C171.809 125.429 172.278 126.029 172.485 126.744C172.692 127.458 172.62 128.229 172.285 128.889C167.279 138.702 151.169 176.819 177.761 217.8C177.956 218.091 178.038 218.448 177.99 218.8C177.942 219.151 177.768 219.471 177.503 219.694C177.239 219.916 176.903 220.026 176.564 220C176.225 219.974 175.909 219.814 175.678 219.553C165.726 208.727 151.779 185.812 156.422 144.938C156.492 144.323 156.365 143.7 156.061 143.167C155.757 142.635 155.293 142.222 154.741 141.994C141.683 136.467 128.939 130.16 116.574 123.103C91.6936 108.914 62.2803 91.9586 61 38.9162C60.9862 38.3078 61.16 37.7109 61.4956 37.2137C61.8312 36.7164 62.3109 36.3451 62.8639 36.1546C63.4169 35.9641 64.0138 35.9645 64.5665 36.1558C65.1193 36.347 65.5985 36.719 65.9335 37.2167Z" fill="white"/>
<path fill-rule="evenodd" clip-rule="evenodd" d="M77.9704 103.749C88.5927 113.071 112.812 131.494 150.449 144.274C151.028 144.468 151.527 144.86 151.866 145.387C152.205 145.914 152.365 146.545 152.319 147.178C151.738 154.962 152.319 181.686 160.376 201.055C160.436 201.251 160.428 201.463 160.355 201.654C160.282 201.846 160.148 202.005 159.976 202.105C159.804 202.204 159.603 202.239 159.409 202.202C159.216 202.165 159.04 202.059 158.912 201.902C153.415 193.685 146.271 180.321 145.759 165.793C145.738 165.151 145.509 164.536 145.108 164.05C144.708 163.563 144.161 163.234 143.557 163.116C132.815 161.038 85.5456 149.618 73.6258 106.724C73.4588 106.139 73.4767 105.514 73.677 104.941C73.8772 104.368 74.2491 103.878 74.7373 103.544C75.2254 103.21 75.8037 103.049 76.3863 103.086C76.9688 103.123 77.5244 103.355 77.9704 103.749Z" fill="white"/>
<path fill-rule="evenodd" clip-rule="evenodd" d="M97.758 150.587C107.744 156.332 127.56 166.739 140.341 166.895C141.115 166.904 141.86 167.202 142.442 167.736C143.024 168.269 143.403 169.003 143.512 169.804C144.285 175.42 146.581 187.107 150.366 193.891C150.416 193.976 150.434 194.077 150.417 194.174C150.399 194.272 150.348 194.359 150.273 194.42C150.197 194.48 150.103 194.509 150.009 194.501C149.914 194.494 149.826 194.45 149.76 194.378C146.773 191.255 142.539 185.978 142.04 180.692C142.04 180.692 115.755 182.726 95.5217 153.223C95.2647 152.895 95.1279 152.482 95.136 152.058C95.144 151.634 95.2962 151.227 95.5654 150.909C95.8346 150.592 96.2031 150.385 96.6049 150.326C97.0067 150.267 97.4155 150.359 97.758 150.587Z" fill="white"/>
<path d="M146.582 197.862C142.084 199.368 137.41 200.22 132.691 200.396C131.875 200.431 131.056 200.454 130.232 200.454C121.966 200.449 113.807 198.505 106.355 194.766C98.9029 191.027 92.3488 185.588 87.1757 178.849C82.0026 172.11 78.3423 164.244 76.4646 155.83C74.587 147.416 74.5398 138.669 76.3266 130.233L70.1811 119.505C70.0971 119.362 69.9763 119.248 69.8327 119.173C69.6891 119.099 69.5285 119.069 69.3691 119.085C69.2097 119.102 69.0581 119.165 68.9315 119.268C68.8049 119.371 68.7085 119.508 68.6533 119.666C65.1192 129.986 64.0101 141.043 65.4193 151.905C66.8285 162.767 70.7147 173.116 76.7506 182.079C82.7865 191.043 90.7952 198.36 100.102 203.412C109.409 208.464 119.741 211.104 130.228 211.11C131.052 211.11 131.871 211.11 132.686 211.066C138.978 210.827 145.204 209.637 151.17 207.533C151.356 207.468 151.525 207.359 151.665 207.214C151.804 207.07 151.91 206.894 151.974 206.7C152.038 206.505 152.058 206.299 152.034 206.095C152.009 205.891 151.94 205.697 151.831 205.525L147.914 198.254C147.799 198.049 147.62 197.892 147.406 197.81C147.192 197.729 146.958 197.728 146.744 197.808L146.582 197.862Z" fill="white"/>
<path d="M132.702 74.4434C131.887 74.4121 131.067 74.3898 130.244 74.3898C125.005 74.3876 119.786 75.0421 114.696 76.3392C114.515 76.3854 114.35 76.4849 114.221 76.6259C114.092 76.767 114.005 76.9436 113.969 77.135C113.933 77.3265 113.95 77.5246 114.019 77.7061C114.087 77.8876 114.204 78.0448 114.355 78.1591L123.496 85.1134C123.762 85.3159 124.092 85.4037 124.418 85.3587L125.195 85.2561C126.871 85.0618 128.558 84.9932 130.244 85.0509C131.067 85.0509 131.887 85.0732 132.702 85.1089C143.351 85.6051 153.634 89.3131 162.311 95.7851C170.988 102.257 177.686 111.216 181.597 121.581C185.508 131.945 186.464 143.272 184.351 154.192C182.237 165.112 177.144 175.159 169.686 183.12C169.562 183.251 169.472 183.414 169.425 183.592C169.378 183.77 169.375 183.957 169.417 184.137L171.688 193.576C171.73 193.759 171.818 193.927 171.941 194.064C172.065 194.201 172.22 194.301 172.393 194.356C172.565 194.411 172.748 194.418 172.924 194.377C173.099 194.335 173.262 194.247 173.395 194.12C183.232 185.096 190.252 173.195 193.547 159.956C196.842 146.716 196.261 132.748 191.878 119.858C187.495 106.968 179.512 95.7486 168.962 87.6522C158.412 79.5558 145.781 74.9544 132.702 74.4434Z" fill="white"/>
</g>
<defs>
<clipPath id="clip0_473_844">
<rect width="134.634" height="184" fill="white" transform="translate(61 36)"/>
</clipPath>
</defs>
</svg>
