<svg width="32" height="32" viewBox="0 0 32 32" fill="none" xmlns="http://www.w3.org/2000/svg">
<g clip-path="url(#clip0_473_837)">
<path fill-rule="evenodd" clip-rule="evenodd" d="M6.75241 2.18515C8.30476 4.51141 12.639 9.79387 22.8038 15.5549C22.8996 15.6088 22.9712 15.7001 23.0027 15.8088C23.0343 15.9176 23.0234 16.0349 22.9724 16.1353C22.2089 17.6286 19.7518 23.429 23.8074 29.6652C23.8371 29.7095 23.8496 29.7639 23.8423 29.8174C23.835 29.8709 23.8085 29.9195 23.7682 29.9534C23.7278 29.9873 23.6766 30.0039 23.6249 30C23.5733 29.996 23.525 29.9717 23.4898 29.932C21.972 28.2845 19.8449 24.7975 20.553 18.5776C20.5637 18.4839 20.5443 18.3891 20.4979 18.3081C20.4515 18.227 20.3807 18.1643 20.2966 18.1296C18.3051 17.2885 16.3616 16.3287 14.4758 15.2549C10.6811 13.0956 6.19526 10.5154 5.99999 2.44377C5.99789 2.35119 6.02439 2.26036 6.07558 2.18469C6.12676 2.10902 6.19992 2.05251 6.28426 2.02353C6.36859 1.99454 6.45963 1.9946 6.54393 2.0237C6.62823 2.05281 6.70132 2.10941 6.75241 2.18515Z" fill="black"/>
<path fill-rule="evenodd" clip-rule="evenodd" d="M8.58821 12.3095C10.2083 13.7282 13.902 16.5317 19.6421 18.4765C19.7304 18.506 19.8065 18.5656 19.8582 18.6458C19.91 18.726 19.9343 18.822 19.9272 18.9184C19.8387 20.1029 19.9272 24.1696 21.1561 27.117C21.1651 27.1468 21.164 27.1791 21.1529 27.2082C21.1418 27.2373 21.1213 27.2615 21.095 27.2767C21.0688 27.2919 21.0382 27.2972 21.0087 27.2915C20.9791 27.2859 20.9523 27.2698 20.9328 27.2459C20.0945 25.9956 19.0049 23.9619 18.9268 21.751C18.9236 21.6534 18.8886 21.5598 18.8276 21.4858C18.7665 21.4117 18.683 21.3616 18.5909 21.3437C16.9527 21.0274 9.74352 19.2897 7.92561 12.7623C7.90014 12.6733 7.90288 12.5782 7.93342 12.491C7.96396 12.4038 8.02067 12.3293 8.09512 12.2784C8.16957 12.2275 8.25778 12.2031 8.34662 12.2087C8.43546 12.2143 8.52019 12.2497 8.58821 12.3095Z" fill="black"/>
<path fill-rule="evenodd" clip-rule="evenodd" d="M11.606 19.4371C13.1291 20.3114 16.1511 21.8951 18.1005 21.9188C18.2185 21.9202 18.3321 21.9656 18.4208 22.0467C18.5096 22.1279 18.5675 22.2395 18.5841 22.3614C18.7019 23.216 19.0521 24.9945 19.6294 26.0269C19.637 26.0398 19.6397 26.0551 19.6371 26.07C19.6344 26.0848 19.6266 26.0981 19.6151 26.1073C19.6036 26.1165 19.5893 26.1209 19.5749 26.1198C19.5604 26.1186 19.5469 26.1119 19.537 26.1009C19.0814 25.6258 18.4357 24.8227 18.3595 24.0184C18.3595 24.0184 14.3508 24.3279 11.2649 19.8383C11.2257 19.7883 11.2049 19.7255 11.2061 19.6609C11.2073 19.5964 11.2305 19.5345 11.2716 19.4862C11.3127 19.4379 11.3689 19.4064 11.4301 19.3974C11.4914 19.3884 11.5538 19.4025 11.606 19.4371Z" fill="black"/>
<path d="M19.0523 26.6311C18.3664 26.8602 17.6535 26.99 16.9337 27.0167C16.8094 27.0221 16.6844 27.0255 16.5588 27.0255C15.2981 27.0248 14.0537 26.729 12.9172 26.16C11.7807 25.591 10.7811 24.7633 9.99213 23.7378C9.20316 22.7124 8.64493 21.5153 8.35856 20.2349C8.07219 18.9545 8.065 17.6234 8.33751 16.3398L7.40024 14.7072C7.38742 14.6855 7.36901 14.668 7.34711 14.6568C7.32521 14.6455 7.30071 14.6408 7.2764 14.6434C7.25209 14.6459 7.22897 14.6556 7.20966 14.6712C7.19035 14.6868 7.17565 14.7077 7.16723 14.7317C6.62825 16.3021 6.45909 17.9847 6.67401 19.6376C6.88893 21.2905 7.48163 22.8654 8.40217 24.2294C9.32271 25.5935 10.5441 26.7068 11.9635 27.4757C13.3829 28.2445 14.9587 28.6463 16.5581 28.6472C16.6838 28.6472 16.8087 28.6472 16.933 28.6404C17.8927 28.604 18.8422 28.423 19.752 28.1028C19.7804 28.0928 19.8062 28.0763 19.8275 28.0543C19.8488 28.0323 19.8649 28.0055 19.8747 27.976C19.8844 27.9464 19.8875 27.915 19.8837 27.884C19.88 27.853 19.8694 27.8233 19.8529 27.7973L19.2554 26.6908C19.2379 26.6596 19.2106 26.6357 19.178 26.6233C19.1454 26.6109 19.1097 26.6108 19.077 26.623L19.0523 26.6311Z" fill="black"/>
<path d="M16.9354 7.85007C16.811 7.84531 16.6861 7.84192 16.5605 7.84192C15.7615 7.84158 14.9655 7.94117 14.1893 8.13856C14.1616 8.14559 14.1365 8.16073 14.1168 8.18219C14.0972 8.20366 14.0838 8.23054 14.0783 8.25967C14.0729 8.2888 14.0755 8.31895 14.0859 8.34657C14.0964 8.37418 14.1142 8.39811 14.1372 8.41551L15.5314 9.47377C15.5719 9.50458 15.6223 9.51795 15.672 9.5111L15.7905 9.49549C16.0461 9.46592 16.3034 9.45548 16.5605 9.46426C16.6861 9.46426 16.811 9.46766 16.9354 9.47309C18.5594 9.54859 20.1278 10.1128 21.4511 11.0977C22.7744 12.0826 23.796 13.446 24.3924 15.0232C24.9889 16.6004 25.1348 18.3239 24.8124 19.9857C24.4901 21.6475 23.7133 23.1764 22.5759 24.3878C22.557 24.4078 22.5433 24.4325 22.5361 24.4596C22.5289 24.4867 22.5285 24.5152 22.5349 24.5425L22.8812 25.9789C22.8877 26.0067 22.901 26.0323 22.9198 26.0532C22.9387 26.074 22.9624 26.0893 22.9887 26.0977C23.015 26.106 23.0429 26.1071 23.0697 26.1008C23.0965 26.0945 23.1212 26.081 23.1415 26.0617C24.6418 24.6885 25.7124 22.8775 26.215 20.8628C26.7175 18.8481 26.6288 16.7225 25.9604 14.7609C25.2919 12.7994 24.0745 11.0922 22.4655 9.8601C20.8565 8.62804 18.9301 7.92783 16.9354 7.85007Z" fill="black"/>
</g>
<defs>
<clipPath id="clip0_473_837">
<rect width="20.5333" height="28" fill="white" transform="translate(6 2)"/>
</clipPath>
</defs>
</svg>
