<svg width="24" height="24" viewBox="0 0 24 24" fill="none" xmlns="http://www.w3.org/2000/svg">
<path d="M12.0043 0.951416C5.91452 0.951416 0.959961 5.90598 0.959961 11.9957C0.959961 18.0855 5.91452 23.0401 12.0043 23.0401C18.094 23.0401 23.0486 18.086 23.0486 11.9957C23.0486 5.9055 18.094 0.951416 12.0043 0.951416ZM16.679 16.9599C16.5403 17.1682 16.3118 17.2805 16.079 17.2805C15.9417 17.2805 15.803 17.2417 15.6801 17.1596C14.4931 16.3681 12.48 15.8401 10.8 15.8405C9.01724 15.8415 7.68092 16.2793 7.66748 16.2836C7.29116 16.4113 6.88268 16.2058 6.75692 15.8285C6.63116 15.4513 6.83516 15.0433 7.21244 14.918C7.2758 14.8969 8.78636 14.402 10.8 14.401C12.48 14.4001 14.8166 14.8532 16.4793 15.9615C16.8105 16.1823 16.8998 16.6292 16.679 16.9599ZM18.1152 14.0127C17.9592 14.2633 17.6899 14.401 17.4148 14.401C17.266 14.401 17.1153 14.3612 16.98 14.2762C14.8276 12.9351 12.6158 12.6514 10.7102 12.6682C8.55884 12.6874 6.83852 13.0978 6.80924 13.1065C6.37388 13.2303 5.91596 12.9759 5.79164 12.5386C5.66732 12.1004 5.9222 11.6449 6.35996 11.521C6.49292 11.4831 8.20988 11.0607 10.5604 11.041C12.7036 11.0233 15.3744 11.3338 17.8521 12.8775C18.2376 13.1175 18.3561 13.6263 18.1152 14.0127ZM19.548 10.5663C19.3689 10.8706 19.0483 11.0401 18.719 11.0401C18.5539 11.0401 18.3868 10.9973 18.2337 10.9081C15.7252 9.43542 12.6753 9.12294 10.5585 9.12006C10.5484 9.12006 10.5384 9.12006 10.5283 9.12006C7.96844 9.12006 5.99708 9.5703 5.9774 9.5751C5.45996 9.69366 4.94492 9.37397 4.82492 8.8575C4.70492 8.3415 5.02508 7.82598 5.54108 7.7055C5.62988 7.68486 7.73612 7.20006 10.5283 7.20006C10.5393 7.20006 10.5504 7.20006 10.5614 7.20006C12.9158 7.20342 16.3267 7.5615 19.2062 9.25206C19.6632 9.52086 19.8163 10.1093 19.548 10.5663Z" fill="white"/>
</svg>
